<mxfile host="app.diagrams.net" modified="2023-09-20T20:29:24.659Z" agent="Mozilla/5.0 (Macintosh; Intel Mac OS X 10_15_7) AppleWebKit/605.1.15 (KHTML, like Gecko) Version/17.0 Safari/605.1.15" etag="RJ3r75Vblo3XTsZpPsMn" version="21.8.0" type="github">
  <diagram name="Page-1" id="I3uzeI1yR59Cci-iTcrx">
    <mxGraphModel dx="1242" dy="827" grid="1" gridSize="10" guides="1" tooltips="1" connect="1" arrows="1" fold="1" page="1" pageScale="1" pageWidth="850" pageHeight="1100" math="0" shadow="0">
      <root>
        <mxCell id="0" />
        <mxCell id="1" parent="0" />
        <mxCell id="-mEN59AIWjE0Pz-OuvAg-5" style="edgeStyle=orthogonalEdgeStyle;rounded=0;orthogonalLoop=1;jettySize=auto;html=1;entryX=0;entryY=0.5;entryDx=0;entryDy=0;" edge="1" parent="1" source="-mEN59AIWjE0Pz-OuvAg-1" target="-mEN59AIWjE0Pz-OuvAg-4">
          <mxGeometry relative="1" as="geometry" />
        </mxCell>
        <mxCell id="-mEN59AIWjE0Pz-OuvAg-1" value="Prompt" style="rounded=0;whiteSpace=wrap;html=1;" vertex="1" parent="1">
          <mxGeometry x="180" y="250" width="120" height="60" as="geometry" />
        </mxCell>
        <mxCell id="-mEN59AIWjE0Pz-OuvAg-3" style="edgeStyle=orthogonalEdgeStyle;rounded=0;orthogonalLoop=1;jettySize=auto;html=1;entryX=0.5;entryY=0;entryDx=0;entryDy=0;" edge="1" parent="1" source="-mEN59AIWjE0Pz-OuvAg-2" target="-mEN59AIWjE0Pz-OuvAg-1">
          <mxGeometry relative="1" as="geometry" />
        </mxCell>
        <mxCell id="-mEN59AIWjE0Pz-OuvAg-2" value="Actor" style="shape=umlActor;verticalLabelPosition=bottom;verticalAlign=top;html=1;outlineConnect=0;" vertex="1" parent="1">
          <mxGeometry x="225" y="110" width="30" height="60" as="geometry" />
        </mxCell>
        <mxCell id="-mEN59AIWjE0Pz-OuvAg-6" style="edgeStyle=orthogonalEdgeStyle;rounded=0;orthogonalLoop=1;jettySize=auto;html=1;" edge="1" parent="1" source="-mEN59AIWjE0Pz-OuvAg-4">
          <mxGeometry relative="1" as="geometry">
            <mxPoint x="440" y="390" as="targetPoint" />
          </mxGeometry>
        </mxCell>
        <mxCell id="-mEN59AIWjE0Pz-OuvAg-4" value="GPT" style="shape=process;whiteSpace=wrap;html=1;backgroundOutline=1;" vertex="1" parent="1">
          <mxGeometry x="380" y="250" width="120" height="60" as="geometry" />
        </mxCell>
        <mxCell id="-mEN59AIWjE0Pz-OuvAg-7" value="LLM" style="rounded=0;whiteSpace=wrap;html=1;" vertex="1" parent="1">
          <mxGeometry x="380" y="390" width="120" height="60" as="geometry" />
        </mxCell>
      </root>
    </mxGraphModel>
  </diagram>
</mxfile>
